<svg width="25" height="24" fill="none" xmlns="http://www.w3.org/2000/svg"><g clip-path="url(#a)"><mask id="b" style="mask-type:luminance" maskUnits="userSpaceOnUse" x="0" y="0" width="25" height="24"><path d="M24.5 24H.5V0h24v24z" fill="#fff"/></mask><g mask="url(#b)"><path d="M21.688 24H3.313A2.813 2.813 0 01.5 21.187V2.813A2.813 2.813 0 013.313 0h18.375A2.813 2.813 0 0124.5 2.813v18.375A2.813 2.813 0 0121.687 24z" fill="#391700"/><path d="M17.183 19.313h2.481l-5.42-6.195 6.376-8.43h-4.993L11.717 9.8 7.242 4.687H4.76l5.797 6.627-6.116 7.998H9.56l3.535-4.673 4.088 4.674zm-.87-13.14h1.374L8.813 17.904H7.338l8.974-11.733z" fill="#FFD1A6"/></g></g><defs><clipPath id="a"><path fill="#fff" transform="matrix(1 0 0 -1 .5 24)" d="M0 0H24V24H0z"/></clipPath></defs></svg>